<svg id="visual" viewBox="0 0 960 300" width="960" height="300" xmlns="http://www.w3.org/2000/svg" xmlns:xlink="http://www.w3.org/1999/xlink" version="1.1"><path d="M0 49L87 49L87 76L175 76L175 106L262 106L262 64L349 64L349 52L436 52L436 31L524 31L524 43L611 43L611 79L698 79L698 25L785 25L785 76L873 76L873 55L960 55L960 64L960 0L960 0L873 0L873 0L785 0L785 0L698 0L698 0L611 0L611 0L524 0L524 0L436 0L436 0L349 0L349 0L262 0L262 0L175 0L175 0L87 0L87 0L0 0Z" fill="#fd9a00"></path><path d="M0 79L87 79L87 106L175 106L175 121L262 121L262 85L349 85L349 82L436 82L436 52L524 52L524 67L611 67L611 118L698 118L698 61L785 61L785 103L873 103L873 85L960 85L960 79L960 62L960 53L873 53L873 74L785 74L785 23L698 23L698 77L611 77L611 41L524 41L524 29L436 29L436 50L349 50L349 62L262 62L262 104L175 104L175 74L87 74L87 47L0 47Z" fill="#ff8d41"></path><path d="M0 139L87 139L87 172L175 172L175 163L262 163L262 148L349 148L349 172L436 172L436 130L524 130L524 157L611 157L611 160L698 160L698 130L785 130L785 133L873 133L873 133L960 133L960 151L960 77L960 83L873 83L873 101L785 101L785 59L698 59L698 116L611 116L611 65L524 65L524 50L436 50L436 80L349 80L349 83L262 83L262 119L175 119L175 104L87 104L87 77L0 77Z" fill="#ff8369"></path><path d="M0 154L87 154L87 181L175 181L175 184L262 184L262 175L349 175L349 184L436 184L436 139L524 139L524 169L611 169L611 172L698 172L698 139L785 139L785 160L873 160L873 145L960 145L960 178L960 149L960 131L873 131L873 131L785 131L785 128L698 128L698 158L611 158L611 155L524 155L524 128L436 128L436 170L349 170L349 146L262 146L262 161L175 161L175 170L87 170L87 137L0 137Z" fill="#ff818e"></path><path d="M0 172L87 172L87 196L175 196L175 199L262 199L262 187L349 187L349 205L436 205L436 157L524 157L524 184L611 184L611 184L698 184L698 154L785 154L785 172L873 172L873 160L960 160L960 184L960 176L960 143L873 143L873 158L785 158L785 137L698 137L698 170L611 170L611 167L524 167L524 137L436 137L436 182L349 182L349 173L262 173L262 182L175 182L175 179L87 179L87 152L0 152Z" fill="#ff86b0"></path><path d="M0 199L87 199L87 211L175 211L175 226L262 226L262 208L349 208L349 220L436 220L436 172L524 172L524 208L611 208L611 211L698 211L698 184L785 184L785 196L873 196L873 178L960 178L960 193L960 182L960 158L873 158L873 170L785 170L785 152L698 152L698 182L611 182L611 182L524 182L524 155L436 155L436 203L349 203L349 185L262 185L262 197L175 197L175 194L87 194L87 170L0 170Z" fill="#ff90cd"></path><path d="M0 208L87 208L87 232L175 232L175 238L262 238L262 229L349 229L349 229L436 229L436 190L524 190L524 214L611 214L611 217L698 217L698 193L785 193L785 208L873 208L873 196L960 196L960 211L960 191L960 176L873 176L873 194L785 194L785 182L698 182L698 209L611 209L611 206L524 206L524 170L436 170L436 218L349 218L349 206L262 206L262 224L175 224L175 209L87 209L87 197L0 197Z" fill="#f49ce3"></path><path d="M0 214L87 214L87 238L175 238L175 244L262 244L262 235L349 235L349 238L436 238L436 196L524 196L524 226L611 226L611 232L698 232L698 202L785 202L785 214L873 214L873 205L960 205L960 217L960 209L960 194L873 194L873 206L785 206L785 191L698 191L698 215L611 215L611 212L524 212L524 188L436 188L436 227L349 227L349 227L262 227L262 236L175 236L175 230L87 230L87 206L0 206Z" fill="#dba8f2"></path><path d="M0 244L87 244L87 265L175 265L175 268L262 268L262 265L349 265L349 253L436 253L436 220L524 220L524 250L611 250L611 250L698 250L698 235L785 235L785 235L873 235L873 232L960 232L960 250L960 215L960 203L873 203L873 212L785 212L785 200L698 200L698 230L611 230L611 224L524 224L524 194L436 194L436 236L349 236L349 233L262 233L262 242L175 242L175 236L87 236L87 212L0 212Z" fill="#c2b3f8"></path><path d="M0 253L87 253L87 271L175 271L175 274L262 274L262 277L349 277L349 268L436 268L436 226L524 226L524 265L611 265L611 262L698 262L698 247L785 247L785 247L873 247L873 238L960 238L960 262L960 248L960 230L873 230L873 233L785 233L785 233L698 233L698 248L611 248L611 248L524 248L524 218L436 218L436 251L349 251L349 263L262 263L262 266L175 266L175 263L87 263L87 242L0 242Z" fill="#aebcf8"></path><path d="M0 286L87 286L87 289L175 289L175 292L262 292L262 295L349 295L349 295L436 295L436 286L524 286L524 286L611 286L611 295L698 295L698 289L785 289L785 295L873 295L873 286L960 286L960 286L960 260L960 236L873 236L873 245L785 245L785 245L698 245L698 260L611 260L611 263L524 263L524 224L436 224L436 266L349 266L349 275L262 275L262 272L175 272L175 269L87 269L87 251L0 251Z" fill="#a1c3f2"></path><path d="M0 301L87 301L87 301L175 301L175 301L262 301L262 301L349 301L349 301L436 301L436 301L524 301L524 301L611 301L611 301L698 301L698 301L785 301L785 301L873 301L873 301L960 301L960 301L960 284L960 284L873 284L873 293L785 293L785 287L698 287L698 293L611 293L611 284L524 284L524 284L436 284L436 293L349 293L349 293L262 293L262 290L175 290L175 287L87 287L87 284L0 284Z" fill="#9dc7e8"></path></svg>