<?xml version="1.0" encoding="UTF-8"?>
<svg xmlns="http://www.w3.org/2000/svg" xmlns:xlink="http://www.w3.org/1999/xlink" width="64px" height="64px" viewBox="0 0 64 64" version="1.1">
<g id="surface1">
<path style=" stroke:none;fill-rule:nonzero;fill:rgb(0%,0%,0%);fill-opacity:1;" d="M 13.550781 0 L 16.425781 0 L 16.425781 2.851562 L 19.074219 2.851562 L 19.074219 0 L 21.949219 0 L 21.949219 8.625 L 19.074219 8.625 L 19.074219 5.75 L 16.449219 5.75 L 16.449219 8.625 L 13.550781 8.625 M 25.75 2.875 L 23.210938 2.875 L 23.210938 0 L 31.175781 0 L 31.175781 2.875 L 28.625 2.875 L 28.625 8.625 L 25.75 8.625 M 32.4375 0 L 35.449219 0 L 37.300781 3.039062 L 39.148438 0 L 42.164062 0 L 42.164062 8.625 L 39.289062 8.625 L 39.289062 4.351562 L 37.273438 7.449219 L 35.261719 4.351562 L 35.261719 8.625 L 32.4375 8.625 M 43.585938 0 L 46.460938 0 L 46.460938 5.773438 L 50.539062 5.773438 L 50.539062 8.625 L 43.585938 8.625 "/>
<path style=" stroke:none;fill-rule:nonzero;fill:rgb(89.411765%,30.196078%,14.901961%);fill-opacity:1;" d="M 13.449219 58.875 L 9.324219 12.574219 L 54.675781 12.574219 L 50.550781 58.851562 L 31.960938 64 "/>
<path style=" stroke:none;fill-rule:nonzero;fill:rgb(94.509804%,39.607843%,16.078431%);fill-opacity:1;" d="M 32 60.0625 L 32 16.375 L 50.539062 16.375 L 47 55.875 "/>
<path style=" stroke:none;fill-rule:nonzero;fill:rgb(92.156863%,92.156863%,92.156863%);fill-opacity:1;" d="M 17.75 22.039062 L 32 22.039062 L 32 27.710938 L 23.976562 27.710938 L 24.5 33.523438 L 32 33.523438 L 32 39.1875 L 19.300781 39.1875 M 19.550781 42.039062 L 25.25 42.039062 L 25.648438 46.574219 L 32 48.273438 L 32 54.199219 L 20.351562 50.949219 "/>
<path style=" stroke:none;fill-rule:nonzero;fill:rgb(100%,100%,100%);fill-opacity:1;" d="M 46.199219 22.039062 L 31.976562 22.039062 L 31.976562 27.710938 L 45.675781 27.710938 M 45.164062 33.523438 L 31.976562 33.523438 L 31.976562 39.199219 L 38.976562 39.199219 L 38.3125 46.574219 L 31.976562 48.273438 L 31.976562 54.175781 L 43.601562 50.949219 "/>
</g>
</svg>
