<svg id="visual" viewBox="0 0 960 300" width="960" height="300" xmlns="http://www.w3.org/2000/svg"
    xmlns:xlink="http://www.w3.org/1999/xlink" version="1.1">
    <rect x="0" y="0" width="960" height="300" fill="#9DC7E8"></rect>
    <path
        d="M0 65L22.8 66.2C45.7 67.3 91.3 69.7 137 75C182.7 80.3 228.3 88.7 274 99.3C319.7 110 365.3 123 411.2 120.2C457 117.3 503 98.7 548.8 91C594.7 83.3 640.3 86.7 686 82.5C731.7 78.3 777.3 66.7 823 75.3C868.7 84 914.3 113 937.2 127.5L960 142L960 301L937.2 301C914.3 301 868.7 301 823 301C777.3 301 731.7 301 686 301C640.3 301 594.7 301 548.8 301C503 301 457 301 411.2 301C365.3 301 319.7 301 274 301C228.3 301 182.7 301 137 301C91.3 301 45.7 301 22.8 301L0 301Z"
        fill="#9dc7e8"></path>
    <path
        d="M0 136L22.8 143C45.7 150 91.3 164 137 162.7C182.7 161.3 228.3 144.7 274 130.8C319.7 117 365.3 106 411.2 103.2C457 100.3 503 105.7 548.8 111.7C594.7 117.7 640.3 124.3 686 134.3C731.7 144.3 777.3 157.7 823 162.7C868.7 167.7 914.3 164.3 937.2 162.7L960 161L960 301L937.2 301C914.3 301 868.7 301 823 301C777.3 301 731.7 301 686 301C640.3 301 594.7 301 548.8 301C503 301 457 301 411.2 301C365.3 301 319.7 301 274 301C228.3 301 182.7 301 137 301C91.3 301 45.7 301 22.8 301L0 301Z"
        fill="#6cb3f2"></path>
    <path
        d="M0 180L22.8 173.2C45.7 166.3 91.3 152.7 137 153.3C182.7 154 228.3 169 274 170.7C319.7 172.3 365.3 160.7 411.2 154.7C457 148.7 503 148.3 548.8 152.2C594.7 156 640.3 164 686 165.7C731.7 167.3 777.3 162.7 823 157C868.7 151.3 914.3 144.7 937.2 141.3L960 138L960 301L937.2 301C914.3 301 868.7 301 823 301C777.3 301 731.7 301 686 301C640.3 301 594.7 301 548.8 301C503 301 457 301 411.2 301C365.3 301 319.7 301 274 301C228.3 301 182.7 301 137 301C91.3 301 45.7 301 22.8 301L0 301Z"
        fill="#389cfb"></path>
    <path
        d="M0 219L22.8 217.8C45.7 216.7 91.3 214.3 137 208.8C182.7 203.3 228.3 194.7 274 193.2C319.7 191.7 365.3 197.3 411.2 206.3C457 215.3 503 227.7 548.8 224.5C594.7 221.3 640.3 202.7 686 198.5C731.7 194.3 777.3 204.7 823 211.7C868.7 218.7 914.3 222.3 937.2 224.2L960 226L960 301L937.2 301C914.3 301 868.7 301 823 301C777.3 301 731.7 301 686 301C640.3 301 594.7 301 548.8 301C503 301 457 301 411.2 301C365.3 301 319.7 301 274 301C228.3 301 182.7 301 137 301C91.3 301 45.7 301 22.8 301L0 301Z"
        fill="#0083ff"></path>
    <path
        d="M0 253L22.8 255.2C45.7 257.3 91.3 261.7 137 260.3C182.7 259 228.3 252 274 252.3C319.7 252.7 365.3 260.3 411.2 257.7C457 255 503 242 548.8 235.5C594.7 229 640.3 229 686 235.2C731.7 241.3 777.3 253.7 823 254.2C868.7 254.7 914.3 243.3 937.2 237.7L960 232L960 301L937.2 301C914.3 301 868.7 301 823 301C777.3 301 731.7 301 686 301C640.3 301 594.7 301 548.8 301C503 301 457 301 411.2 301C365.3 301 319.7 301 274 301C228.3 301 182.7 301 137 301C91.3 301 45.7 301 22.8 301L0 301Z"
        fill="#0066ff"></path>
</svg>